<svg xmlns="http://www.w3.org/2000/svg" viewBox="0 0 791.6 145.73"><defs><style>.cls-1{fill:#ffcf5d}.cls-14{fill:#010000}.cls-6{fill:#30292e}.cls-11{fill:#272a29}.cls-10{fill:#0f5684}.cls-13{fill:#009dff}</style></defs><g id="Слой_2" data-name="Слой 2"><g id="_лой_1" data-name="—лой 1"><path class="cls-1" d="M67.39 115.27h9.97v9.71h-9.97zM10.62 115.84h9.97v9.71h-9.97z"/><path fill-rule="evenodd" fill="#ffbe30" d="M11.2 77.3h66.5V60.32H.17l.03 6.96 11 .15v9.87z"/><path fill-rule="evenodd" fill="#ffcf5d" d="M.11 20.33h85.3v49.73H18.1v-9l-17.99.05V20.33z"/><path fill="#b35d25" fill-rule="evenodd" d="M0 10.73h10.46L10.48 0 77.8.26v10.47h9.02l.11 19.97-8.39.05.06-10.42H19.4l-.55 28.34L0 48.63v-37.9z"/><path stroke="#2b2a29" stroke-miterlimit="22.93" stroke-width=".57" fill="#010000" fill-rule="evenodd" d="M19.01 40.38h68.27v17.57H68.72l-.25-8.85-8.95-.15-.08 9H39.69l.06-9.09-20.74-.19v-8.29z"/><path class="cls-6" d="M48.18 40.38h11.35v8.57H48.18zM75.88 40.43h11.35V49H75.88z"/><path fill="#272a29" fill-rule="evenodd" d="M19.44 77.3h48.59v12.35l9.28-.2.07 26.28-9.21.1-.04 8.97h-8.4l-.39 20.93H49.07v-20.34l-9.85.12-.03 20.22H28.13l.2-20.34h-8.89v-8.69l-8.69-.2.04-26.84 8.65-.21V77.3z"/><path fill="#303234" fill-rule="evenodd" d="M68.03 89.34l.05 9-8.3-.01v8.95l8.35-.06.04 8.61-.04 8.97h-8.4l-.39 20.93H49.07v-20.34l-9.85.12-.03 20.22H28.13l.2-20.34h-8.89v-8.69l-8.69-.2.04-27.16H68.03z"/><path fill="#3f423f" fill-rule="evenodd" d="M31.29 86.99h28.54v29.51l-40.22-.07-.09-9.83H31.2l.09-19.61z"/><path class="cls-10" d="M31.29 77.47h7.9v9.51h-7.9zM49.17 77.37h10.27v9.82H49.17z"/><path class="cls-10" d="M38.88 86.88h10.49v29.7H38.88z"/><path class="cls-11" d="M19.82 99.31h11.37v7.3H19.82zM59.83 116.54h8.32v8.52h-8.32z"/><path fill="#49464a" fill-rule="evenodd" d="M19.82 99.31v17.39l-9.07-.2.04-27.16H31.17v9.97H19.82z"/><path class="cls-1" d="M39.19 77.17h9.97v9.71h-9.97z"/><path class="cls-13" d="M146.16 33.36q9 0 13.56 3.42t4.52 10.8q0 7.24-4.47 11.14T147 62.62h-15V10.25h29.44v3.44h-25.79v19.67zm-10.51 26h10.72q7.06 0 10.47-2.85t3.41-9q0-5.91-3.44-8.45t-11.15-2.54h-10zM209.37 62.62h-3.69V13.69h-19q-1.47 12.14-3.12 23t-2.78 15.51a29.35 29.35 0 01-2.37 6.86 7.63 7.63 0 01-7.41 4.39 9.28 9.28 0 01-4.2-.9v-3.3a12 12 0 004.05.79q3.12 0 4.86-3.87t3.8-16.69q2.06-12.82 4.11-29.23h25.79zM266.77 36.37q0 12.47-6.24 19.72t-17.21 7.25q-10.94 0-17.18-7.25T219.9 36.3q0-12.5 6.29-19.68t17.2-7.18q11 0 17.18 7.22t6.2 19.71zm-42.89 0q0 11.25 5 17.39t14.42 6.14q9.47 0 14.47-6.09t5-17.44q0-11.32-5-17.35t-14.4-6q-9.36 0-14.44 6.09t-5.06 17.26zM280.95 62.62h-3.66V10.25H306v3.37h-25.05zM351 12.8q-9.86 0-15.53 6.3t-5.67 17.27q0 11.21 5.34 17.41T350.46 60a41.44 41.44 0 0012.12-1.68v3.22a39.6 39.6 0 01-13 1.83q-11 0-17.39-7.13t-6.35-19.92a31.2 31.2 0 013-14.08 21.92 21.92 0 018.71-9.4 25.77 25.77 0 0113.27-3.34 31.76 31.76 0 0113.74 2.87l-1.47 3.3A26.63 26.63 0 00351 12.8zM372.75 10.25h3.51V44.5q0 3.65-.29 12.25h.21l31-46.5h3.69v52.37h-3.55v-34q0-5.8.47-12.54h-.29l-31.09 46.54h-3.66zM446.58 12.8q-9.86 0-15.53 6.3t-5.67 17.27q0 11.21 5.34 17.41T446 60a41.45 41.45 0 0012.12-1.68v3.22a39.6 39.6 0 01-13 1.83q-11 0-17.39-7.13t-6.33-19.95a31.2 31.2 0 013-14.08 21.91 21.91 0 018.71-9.4 25.77 25.77 0 0113.25-3.31 31.76 31.76 0 0113.74 2.87l-1.47 3.3a26.63 26.63 0 00-12.05-2.87zM482 62.62h-3.69V13.69h-17v-3.44H499v3.44h-17zM533.9 62.62h-28.65V10.25h28.65v3.37h-25v19.81h23.6v3.37h-23.6v22.45h25zM567.31 62.62l-19.55-48.36h-.29q.29 4.44.29 9.1v39.26h-3.51V10.25h5.67l18.58 46.07h.21l18.58-46.07h5.52v52.37h-3.69V22.93q0-4.16.43-8.6h-.29l-19.62 48.29zM644.07 62.62h-3.69V36.87h-30.63v25.75h-3.66V10.25h3.66V33.5h30.63V10.25h3.69zM701.47 36.37q0 12.47-6.24 19.72T678 63.34q-10.94 0-17.18-7.25t-6.22-19.8q0-12.5 6.29-19.68t17.2-7.18q11 0 17.18 7.22t6.2 19.72zm-42.89 0q0 11.25 5 17.39T678 59.9q9.47 0 14.47-6.09t5-17.44q0-11.32-5-17.35t-14.4-6q-9.36 0-14.43 6.09t-5.06 17.26zM715.65 62.62H712V10.25h28.73v3.37h-25.08zM791.41 36.37q0 12.47-6.24 19.72T768 63.34q-10.94 0-17.18-7.25t-6.24-19.79q0-12.5 6.29-19.68T768 9.43q11 0 17.18 7.22t6.23 19.72zm-42.89 0q0 11.25 5 17.39T768 59.9q9.47 0 14.47-6.09t5-17.44q0-11.32-5-17.35T768 13q-9.36 0-14.43 6.09t-5.05 17.28z"/><path class="cls-14" d="M164.17 110.7H143.1l-7.24 18.55h-4l20.86-52.77H155l20.43 52.77h-4.08zm-19.76-3.31H163l-7.1-18.94q-.89-2.23-2.13-6.18a58.15 58.15 0 01-2.09 6.25zM220.72 142.51h-3.48v-13.26h-37.78v13.26h-3.51V125.8h3.73a105.18 105.18 0 009.22-23.45 113.37 113.37 0 004.43-25.65h22.07v49.1h5.32zm-9-16.71V80.15h-15.27a128 128 0 01-4.45 24.41q-3.62 13.09-8.27 21.24zM253 129.25l-19.3-48.52h-.28q.28 4.46.28 9.13v39.4h-3.48V76.7h5.6l18.38 46.22h.21L272.8 76.7h5.46v52.55h-3.66V89.42q0-4.17.43-8.63h-.28l-19.41 48.45zM292.91 76.7h3.48v34.36q0 3.67-.28 12.29h.21L327 76.7h3.65v52.55h-3.51V95.1q0-5.82.46-12.58h-.28l-30.76 46.73h-3.62zM382.88 129.25h-3.65v-25.84h-30.3v25.84h-3.62V76.7h3.62V100h30.3V76.7h3.65zM397.57 76.7H401v34.36q0 3.67-.28 12.29h.28l30.62-46.65h3.65v52.55h-3.51V95.1q0-5.82.46-12.58h-.28l-30.76 46.73h-3.62zM472.1 79.25q-9.76 0-15.36 6.33t-5.6 17.33q0 11.25 5.29 17.47t15.11 6.22a40.42 40.42 0 0012-1.69v3.24a38.67 38.67 0 01-12.86 1.85q-10.93 0-17.21-7.15t-6.28-20a31.69 31.69 0 013-14.13 21.87 21.87 0 018.62-9.43 25.2 25.2 0 0113.07-3.33 31.05 31.05 0 0113.59 2.88L484 82.13a26 26 0 00-11.9-2.88zM508.61 129.25H505v-49.1h-16.9V76.7h37.36v3.45h-16.85zM564.37 91.8q0 7.62-5.11 11.68t-14.47 4.06h-8v21.71h-3.62V76.7h12.7q18.5 0 18.5 15.1zm-27.6 12.58h7.13q8.76 0 12.67-2.93t3.9-9.51q0-6.07-3.69-9T545.36 80h-8.59zM600.63 110.7h-21.07l-7.24 18.55h-4l20.86-52.77h2.31l20.43 52.77h-4.08zm-19.76-3.31h18.55l-7.06-18.94q-.89-2.23-2.13-6.18a57.94 57.94 0 01-2.09 6.25zM632.77 129.25h-3.65v-49.1h-16.85V76.7h37.36v3.45h-16.86zM700.92 102.9q0 12.51-6.17 19.79t-17 7.28q-10.82 0-17-7.28t-6.17-19.86q0-12.54 6.23-19.75t17-7.21q10.86 0 17 7.24t6.11 19.79zm-42.43 0q0 11.29 5 17.45t14.26 6.17q9.37 0 14.31-6.11T697 102.9q0-11.36-4.95-17.42t-14.24-6.06q-9.26 0-14.28 6.11t-5.04 17.37zM744.06 91.8q0 7.62-5.11 11.68t-14.47 4.06h-8v21.71h-3.62V76.7h12.7q18.5 0 18.5 15.1zm-27.6 12.58h7.13q8.76 0 12.67-2.93t3.9-9.51q0-6.07-3.69-9T725 80h-8.59zM780.32 110.7h-21.07L752 129.25h-4l20.86-52.77h2.31l20.43 52.77h-4.08zm-19.76-3.31h18.55l-7.06-18.94q-.89-2.23-2.13-6.18a57.94 57.94 0 01-2.09 6.25z"/></g></g></svg>